<svg xmlns="http://www.w3.org/2000/svg" width="48" height="48" viewBox="0 0 48 48" role="img" aria-labelledby="title desc">
  <title id="title">Hollow Knight Damage Tracker Favicon</title>
  <desc id="desc">Minimalist Hollow Knight mask favicon.</desc>
  <rect width="48" height="48" rx="10" fill="#0b0d1c" />
  <path d="M13 11c4-7 11-10 15-10s11 3 15 10c2 4-2 7-5 4-3-3-6-5-10-5s-7 2-10 5c-3 3-7 0-5-4Z" fill="#f2f4ff" />
  <path d="M12 20c0-6 5-11 11-11h2c6 0 11 5 11 11v5c0 6-3 12-9 14l-3 1-3-1c-6-2-9-8-9-14v-5Z" fill="#f7f8ff" />
  <circle cx="18" cy="26" r="3" fill="#080b1a" />
  <circle cx="30" cy="26" r="3" fill="#080b1a" />
</svg>
