<svg xmlns="http://www.w3.org/2000/svg" width="512" height="512" viewBox="0 0 512 512" role="img" aria-labelledby="title desc">
  <title id="title">Hollow Knight Damage Tracker Icon Large</title>
  <desc id="desc">Large Hollow Knight inspired emblem with mask silhouette and midnight gradient.</desc>
  <defs>
    <linearGradient id="bg" x1="0%" y1="0%" x2="100%" y2="100%">
      <stop offset="0%" stop-color="#232f68" />
      <stop offset="100%" stop-color="#050712" />
    </linearGradient>
    <linearGradient id="horn" x1="0%" y1="0%" x2="0%" y2="100%">
      <stop offset="0%" stop-color="#ffffff" stop-opacity="0.97" />
      <stop offset="100%" stop-color="#d4dcff" />
    </linearGradient>
  </defs>
  <rect width="512" height="512" rx="96" fill="url(#bg)" />
  <path d="M157 128c28-47 75-72 107-72s79 25 107 72c12 24-12 45-32 25-18-24-36-36-75-36s-57 12-75 36c-20 20-44-1-32-25Z" fill="url(#horn)" />
  <path d="M144 210c0-55 51-102 120-102s120 47 120 102v48c0 55-31 109-89 131l-31 11-31-11c-58-22-89-76-89-131v-48Z" fill="#f7f8ff" />
  <path d="M173 250c17 0 31 14 31 31s-14 31-31 31-31-14-31-31 14-31 31-31Zm166 0c17 0 31 14 31 31s-14 31-31 31-31-14-31-31 14-31 31-31Z" fill="#0c1021" />
  <path d="M188 359c36 29 100 29 136 0 9-7 19 6 14 17-32 58-132 58-164 0-5-11 5-24 14-17Z" fill="#d0d7ff" opacity="0.6" />
</svg>
